<?xml version="1.0" ?><svg viewBox="0 0 24 24" xmlns="http://www.w3.org/2000/svg"><defs><style>.cls-1{fill:none;}.cls-2{fill:#ff003c;}.cls-3{fill:#fff;}</style></defs><title/><g data-name="Layer 2" id="Layer_2"><g data-name="Layer 2" id="Layer_2-2"><g id="Gallery"><rect class="cls-1" height="24" width="24"/><path class="cls-2" d="M1,12C1,4,4,1,12,1S23,4,23,12,20,23,12,23,1,20,1,12"/><path class="cls-3" d="M16.62,12.83a9.25,9.25,0,0,0-3-.83,9.25,9.25,0,0,0,3-.83A1.6,1.6,0,0,0,17.2,9,1.59,1.59,0,0,0,15,8.42a9.21,9.21,0,0,0-2.2,2.14,9,9,0,0,0,.76-3,1.59,1.59,0,0,0-3.18,0,9,9,0,0,0,.76,3A9.21,9.21,0,0,0,9,8.42,1.59,1.59,0,0,0,6.8,9a1.6,1.6,0,0,0,.58,2.17,9.25,9.25,0,0,0,3,.83,9.25,9.25,0,0,0-3,.83A1.6,1.6,0,0,0,6.8,15,1.59,1.59,0,0,0,9,15.58a9.21,9.21,0,0,0,2.2-2.14,9,9,0,0,0-.76,3,1.59,1.59,0,0,0,3.18,0,9,9,0,0,0-.76-3A9.21,9.21,0,0,0,15,15.58,1.59,1.59,0,0,0,17.2,15,1.6,1.6,0,0,0,16.62,12.83ZM12,13.06A1.06,1.06,0,1,1,13.06,12,1.07,1.07,0,0,1,12,13.06Z"/></g></g></g></svg>