<?xml version="1.0" ?><svg viewBox="0 0 60 60" xmlns="http://www.w3.org/2000/svg"><defs><style>.a{fill:none;stroke:#1c4db8;stroke-linecap:round;stroke-linejoin:round;stroke-width:1.5px;}.b{fill:#e82e5f;}</style></defs><title/><path class="a" d="M25.218,54.326a1.562,1.562,0,0,0,2.212,0l1.308-1.293a1.563,1.563,0,0,0,0-2.213,1.526,1.526,0,0,0-1.114-.459,1.494,1.494,0,0,0-1.1.459l-1.307,1.294A1.562,1.562,0,0,0,25.218,54.326Z"/><path class="a" d="M27.461,49.854a1.564,1.564,0,0,0-2.212-2.213l-2.281,2.282a1.548,1.548,0,0,0-.459,1.1,1.581,1.581,0,0,0,.459,1.113,1.615,1.615,0,0,0,2.212,0Z"/><path class="a" d="M20.784,49.892a1.561,1.561,0,0,0,2.213,0l2.281-2.281a1.562,1.562,0,0,0,0-2.212,1.537,1.537,0,0,0-1.1-.459,1.57,1.57,0,0,0-1.113.459L20.784,47.68A1.562,1.562,0,0,0,20.784,49.892Z"/><path class="a" d="M19.112,46.715a.748.748,0,0,0,.42.8,1.623,1.623,0,0,0,1.751-.312L22.574,45.9a1.491,1.491,0,0,0,.457-1.1,1.526,1.526,0,0,0-.461-1.112,1.615,1.615,0,0,0-2.212,0c-1.383,1.4-1.257,1.274-1.27,1.29"/><line class="a" x1="23.031" x2="24.759" y1="58.47" y2="56.743"/><path class="a" d="M16.842,49.021l2.091-2.091A1.507,1.507,0,0,0,16.8,44.8L14.671,46.93a4.017,4.017,0,0,0-1.077,3.74c.162.715,2.605,5.386,1.429,6.562L14.007,58.5"/><path class="a" d="M19.41,28.417A9.881,9.881,0,0,1,17.2,30.335"/><line class="a" x1="1.939" x2="5.1" y1="42.931" y2="40.63"/><line class="a" x1="3.273" x2="6.742" y1="45.189" y2="42.659"/><line class="a" x1="4.921" x2="8.008" y1="47.193" y2="45.043"/><path class="a" d="M10.015,32.144l7.7,11.305"/><path class="a" d="M28.844,13.9A1.844,1.844,0,0,0,25.735,14c-4,6.7-8.1,13.087-20.193,21.412L4.018,36.449A5.536,5.536,0,0,0,2.562,44.14l1.265,1.866a5.536,5.536,0,0,0,7.692,1.454l1.524-1.039c12.167-8.217,19.613-9.7,27.308-10.977a1.844,1.844,0,0,0,1.224-2.859Z"/><path class="a" d="M33.538,20.787l.762-.519A2.768,2.768,0,0,1,38.147,21l.224.34a2.768,2.768,0,0,1-.728,3.846l-.762.519"/><path class="a" d="M20.072,43.977c-.092-.129-.93-1.353-.93-1.353"/><path class="a" d="M17.109,48.754c2.457,3.258,6.077,7.261,8.882,8.751a.505.505,0,0,0,.283.056c2.2-.214,4-1.778,5.559-4.164a.5.5,0,0,0-.341-.767,11.356,11.356,0,0,1-2.3-.555"/><path class="a" d="M21.245,26.667s4.185-3.876,4.781-5.873"/><path class="b" d="M41.489,21.594a.516.516,0,0,0,.481.9l12.357-4.463a.517.517,0,0,0,.14-.895l-2.313-1.783a.517.517,0,0,1-.029-.795l6.1-5.443a.517.517,0,0,0-.534-.866l-14.151,5.61a.517.517,0,0,0-.1.906l3.194,2.193a.516.516,0,0,1,.014.842Z"/><path class="b" d="M44.989,30.013a.285.285,0,0,0-.183.533l6.45,3.316a.285.285,0,0,0,.414-.28l-.149-1.606a.284.284,0,0,1,.31-.31l4.494.419a.285.285,0,0,0,.149-.541l-7.588-3.609a.284.284,0,0,0-.4.3l.315,2.115a.286.286,0,0,1-.335.323Z"/><path class="b" d="M34.742,13.167a.285.285,0,0,0,.536.177l3.245-6.485a.286.286,0,0,0-.285-.412l-1.6.167a.286.286,0,0,1-.314-.307l.37-4.5a.285.285,0,0,0-.543-.144L32.622,9.292a.286.286,0,0,0,.3.4l2.112-.338a.284.284,0,0,1,.325.331Z"/></svg>